<?xml version="1.0" standalone="no"?>
<!DOCTYPE svg PUBLIC "-//W3C//DTD SVG 20010904//EN"
 "http://www.w3.org/TR/2001/REC-SVG-20010904/DTD/svg10.dtd">
<svg version="1.0" xmlns="http://www.w3.org/2000/svg"
 width="260.000000pt" height="260.000000pt" viewBox="0 0 260.000000 260.000000"
 preserveAspectRatio="xMidYMid meet">
<metadata>
Created by potrace 1.11, written by Peter Selinger 2001-2013
</metadata>
<g transform="translate(0.000000,260.000000) scale(0.100000,-0.100000)"
fill="#000000" stroke="none">
<path d="M1243 2333 c-27 -49 -92 -160 -143 -248 -51 -88 -104 -180 -118 -205
-14 -25 -33 -57 -43 -72 -11 -14 -19 -28 -19 -31 0 -2 -29 -54 -64 -115 -36
-61 -76 -131 -89 -154 -13 -24 -88 -153 -167 -288 -78 -135 -154 -265 -168
-290 -14 -25 -81 -142 -150 -260 -69 -118 -138 -239 -154 -268 -16 -29 -51
-90 -78 -135 l-48 -82 394 -3 c217 -1 572 -1 789 0 l394 3 -136 155 c-74 85
-161 184 -192 219 -31 36 -61 69 -66 75 -77 82 -114 134 -110 156 2 13 7 46
10 74 3 28 7 62 10 76 7 37 18 119 29 210 4 30 9 66 11 80 2 14 7 45 10 70 3
25 10 77 16 115 14 104 17 123 28 205 6 41 12 91 15 110 8 57 76 551 82 595 2
22 7 52 10 68 3 15 4 27 2 27 -3 0 -27 -39 -55 -87z"/>
<path d="M1514 2028 c3 -20 8 -63 11 -95 3 -32 8 -76 11 -98 2 -22 7 -56 9
-75 7 -59 15 -133 20 -175 2 -22 11 -103 20 -180 8 -77 18 -162 20 -190 3 -27
8 -66 10 -85 6 -47 14 -124 20 -185 3 -27 7 -66 10 -85 6 -45 23 -191 29 -250
3 -25 8 -74 11 -110 4 -36 8 -72 10 -80 2 -8 6 -46 10 -85 8 -88 16 -149 19
-153 2 -1 199 -1 438 0 l435 3 -109 190 c-61 105 -179 309 -263 455 -84 146
-189 327 -234 404 -44 76 -81 140 -81 141 0 2 -27 49 -60 104 -33 56 -60 106
-60 111 0 6 -4 10 -10 10 -5 0 -10 4 -10 9 0 8 -246 439 -257 451 -3 3 -2 -12
1 -32z"/>
</g>
</svg>
