<svg viewBox="0 0 2776 378" version="1.1" xmlns="http://www.w3.org/2000/svg" xmlns:xlink="http://www.w3.org/1999/xlink" xml:space="preserve" style="fill-rule:evenodd;clip-rule:evenodd;stroke-linejoin:round;stroke-miterlimit:1.41421;">
    <g transform="matrix(1,0,0,1,-548.043,-841.703)">
        <g id="Prota-Labs" transform="matrix(1,0,0,1,0,-771.57)">
            <g id="Prota-Labs-Labs" transform="matrix(9.55505,0,0,9.55505,-8003.1,-16445.7)">
                <path d="M1133.3,1928.97L1131.1,1928.97L1131.1,1925.07C1129.49,1927.32 1126.6,1929.52 1122.16,1929.52C1117.8,1929.52 1113.13,1927.04 1113.13,1922.18L1113.13,1922.09C1113.13,1917.23 1117.3,1914.48 1123.35,1914.48C1126.6,1914.48 1128.85,1914.9 1131.1,1915.49L1131.1,1914.48C1131.1,1909.76 1128.21,1907.33 1123.39,1907.33C1120.55,1907.33 1118.22,1908.11 1116.06,1909.21L1115.24,1907.24C1117.8,1906.05 1120.32,1905.23 1123.53,1905.23C1126.69,1905.23 1129.22,1906.1 1130.91,1907.79C1132.47,1909.35 1133.3,1911.5 1133.3,1914.39L1133.3,1928.97ZM1142.69,1895.51L1142.69,1910.82C1144.71,1907.75 1147.69,1905.04 1152.32,1905.04C1157.95,1905.04 1163.68,1909.58 1163.68,1917.19L1163.68,1917.28C1163.68,1924.89 1157.95,1929.52 1152.32,1929.52C1147.64,1929.52 1144.62,1926.86 1142.69,1923.92L1142.69,1928.97L1140.44,1928.97L1140.44,1895.51L1142.69,1895.51ZM1177.34,1929.42C1181.83,1929.42 1185.41,1926.77 1185.41,1922.6L1185.41,1922.5C1185.41,1918.38 1181.47,1917 1177.71,1915.95C1174.36,1914.99 1171.2,1914.03 1171.2,1911.41L1171.2,1911.32C1171.2,1908.98 1173.31,1907.24 1176.52,1907.24C1178.99,1907.24 1181.56,1908.16 1183.71,1909.58L1184.9,1907.7C1182.57,1906.14 1179.4,1905.13 1176.61,1905.13C1172.07,1905.13 1168.91,1907.84 1168.91,1911.6L1168.91,1911.69C1168.91,1915.86 1173.12,1917 1176.93,1918.1C1180.18,1919.02 1183.12,1920.03 1183.12,1922.78L1183.12,1922.87C1183.12,1925.58 1180.64,1927.32 1177.48,1927.32C1174.5,1927.32 1171.66,1926.22 1169.09,1924.25L1167.76,1926.03C1170.24,1928.05 1173.95,1929.42 1177.34,1929.42ZM1091.86,1896.88L1091.86,1926.77L1110.7,1926.77L1110.7,1928.97L1089.48,1928.97L1089.48,1896.88L1091.86,1896.88ZM1122.3,1927.41C1118.72,1927.41 1115.51,1925.44 1115.51,1922.05L1115.51,1921.95C1115.51,1918.7 1118.26,1916.5 1123.21,1916.5C1126.56,1916.5 1129.17,1917.05 1131.14,1917.55L1131.14,1920.21C1131.14,1924.48 1127.06,1927.41 1122.3,1927.41ZM1152.09,1927.36C1147.23,1927.36 1142.55,1923.33 1142.55,1917.33L1142.55,1917.23C1142.55,1911.28 1147.23,1907.2 1152.09,1907.2C1156.99,1907.2 1161.25,1911.14 1161.25,1917.28L1161.25,1917.37C1161.25,1923.65 1157.17,1927.36 1152.09,1927.36Z" style="fill:rgb(184,115,51);"/>
            </g>
            <g id="Prota-Labs-Prota" transform="matrix(5.3525,0,0,5.3525,-4095.28,-3490.12)">
                <path d="M1082.31,1024.02C1095.05,1024.02 1104.42,1013.89 1104.42,1001.74L1104.42,1001.58C1104.42,989.352 1095.12,979.39 1082.46,979.39C1069.8,979.39 1060.42,989.514 1060.42,1001.74L1060.42,1001.91C1060.42,1014.06 1069.72,1024.02 1082.31,1024.02ZM1180.71,1023.05L1171.33,1023.05L1171.33,1017.78C1168.52,1021.26 1164.22,1023.94 1157.96,1023.94C1150.15,1023.94 1143.27,1019.32 1143.27,1010.74L1143.27,1010.57C1143.27,1001.1 1150.38,996.561 1160,996.561C1165,996.561 1168.2,997.29 1171.41,998.343L1171.41,997.533C1171.41,991.62 1167.81,988.38 1161.25,988.38C1156.64,988.38 1153.2,989.433 1149.44,991.053L1146.87,983.196C1151.4,981.091 1155.85,979.633 1162.58,979.633C1174.77,979.633 1180.71,986.274 1180.71,997.695L1180.71,1023.05ZM1115.99,988.704L1110.76,988.704L1110.76,980.281L1115.99,980.281L1115.99,968.536L1125.45,968.536L1125.45,980.281L1136.55,980.281L1136.55,988.704L1125.45,988.704L1125.45,1009.68C1125.45,1013.49 1127.33,1015.03 1130.53,1015.03C1132.64,1015.03 1134.52,1014.54 1136.39,1013.57L1136.39,1021.59C1134.05,1022.97 1131.39,1023.77 1127.87,1023.77C1120.92,1023.77 1115.99,1020.62 1115.99,1011.22L1115.99,988.704ZM1000.86,966.349C1013.6,966.349 1021.65,973.882 1021.65,985.302L1021.65,985.464C1021.65,998.181 1011.81,1004.82 999.769,1004.82L988.904,1004.82L988.904,1023.05L979.291,1023.05L979.291,966.349L1000.86,966.349ZM1039.87,980.281L1039.87,989.919C1042.44,983.52 1047.21,979.147 1054.48,979.471L1054.48,989.838L1053.93,989.838C1045.65,989.838 1039.87,995.427 1039.87,1006.77L1039.87,1023.05L1030.41,1023.05L1030.41,980.281L1039.87,980.281ZM1171.57,1007.58C1171.57,1012.92 1166.88,1016.57 1160.62,1016.57C1156.17,1016.57 1152.65,1014.3 1152.65,1010.25L1152.65,1010.09C1152.65,1005.96 1156.17,1003.45 1162.11,1003.45C1165.78,1003.45 1169.14,1004.17 1171.57,1005.15L1171.57,1007.58ZM1082.46,1015.51C1075.12,1015.51 1069.88,1009.2 1069.88,1001.74L1069.88,1001.58C1069.88,994.131 1074.72,987.975 1082.31,987.975C1089.73,987.975 1094.97,994.212 1094.97,1001.74L1094.97,1001.91C1094.97,1009.28 1090.12,1015.51 1082.46,1015.51ZM1000.08,975.421L988.904,975.421L988.904,995.832L1000.08,995.832C1007.35,995.832 1011.88,991.62 1011.88,985.707L1011.88,985.545C1011.88,978.904 1007.27,975.421 1000.08,975.421Z" style="fill:rgb(22,22,22);"/>
            </g>
            <g id="Prota-Labs-Icon" transform="matrix(9.7198,0,0,9.7198,-17725.4,-17335.1)">
                <path d="M1898.51,1978.23L1907.33,1988.32L1880.02,1988.32L1902.45,1949.47L1898.51,1978.23ZM1924.89,1988.32L1909.74,1988.32L1906.1,1955.77L1924.89,1988.32ZM1902.45,1949.47C1902.45,1949.47 1902.45,1949.47 1902.45,1949.47Z" style="fill:rgb(184,115,51);"/>
            </g>
        </g>
    </g>
</svg>
